<svg width="100%" viewBox="0 0 680 400" role="img" xmlns="http://www.w3.org/2000/svg">
<title>MLOps Spam Detector — pipeline cover image</title>
<desc>Visual pipeline: SMS data ingress → Naive Bayes model → FastAPI → Docker/Drone CI → MLflow tracking</desc>
<defs>
  <marker id="arrow" viewBox="0 0 10 10" refX="8" refY="5" markerWidth="6" markerHeight="6" orient="auto-start-reverse">
    <path d="M2 1L8 5L2 9" fill="none" stroke="context-stroke" stroke-width="1.5" stroke-linecap="round" stroke-linejoin="round"/>
  </marker>
</defs>

<rect x="0" y="0" width="680" height="400" rx="0" fill="#0d1117"/>
<rect x="0" y="0" width="680" height="400" fill="none" opacity="0.07"/>
<line x1="0" y1="66" x2="680" y2="66" stroke="#00e5a0" stroke-width="0.5" opacity="0.15"/>
<line x1="0" y1="333" x2="680" y2="333" stroke="#00e5a0" stroke-width="0.5" opacity="0.15"/>

<text x="340" y="38" text-anchor="middle" font-family="monospace" font-size="11" fill="#00e5a0" opacity="0.5" font-weight="400">mlops-spam-detector  •  pipeline v1.0  •  acc ~97%</text>

<rect x="30" y="90" width="110" height="56" rx="8" fill="#0f2318" stroke="#00e5a0" stroke-width="1" opacity="0.9"/>
<text x="85" y="115" text-anchor="middle" font-family="monospace" font-size="12" fill="#00e5a0" font-weight="700">SMS</text>
<text x="85" y="133" text-anchor="middle" font-family="monospace" font-size="10" fill="#5dcaa5">ingress</text>

<line x1="140" y1="118" x2="168" y2="118" stroke="#00e5a0" stroke-width="1.5" marker-end="url(#arrow)" opacity="0.8"/>

<rect x="170" y="90" width="130" height="56" rx="8" fill="#0f2318" stroke="#00e5a0" stroke-width="1.5"/>
<text x="235" y="112" text-anchor="middle" font-family="monospace" font-size="11" fill="#00e5a0" font-weight="700">Naive Bayes</text>
<text x="235" y="128" text-anchor="middle" font-family="monospace" font-size="10" fill="#5dcaa5">Scikit-learn</text>
<text x="235" y="143" text-anchor="middle" font-family="monospace" font-size="9" fill="#1d9e75">TF-IDF  •  ~97% acc</text>

<line x1="300" y1="118" x2="328" y2="118" stroke="#00e5a0" stroke-width="1.5" marker-end="url(#arrow)" opacity="0.8"/>

<rect x="330" y="90" width="110" height="56" rx="8" fill="#0f2318" stroke="#00e5a0" stroke-width="1"/>
<text x="385" y="115" text-anchor="middle" font-family="monospace" font-size="12" fill="#00e5a0" font-weight="700">FastAPI</text>
<text x="385" y="133" text-anchor="middle" font-family="monospace" font-size="10" fill="#5dcaa5">REST endpoint</text>

<line x1="440" y1="118" x2="468" y2="118" stroke="#00e5a0" stroke-width="1.5" marker-end="url(#arrow)" opacity="0.8"/>

<rect x="470" y="90" width="175" height="56" rx="8" fill="#0f2318" stroke="#00e5a0" stroke-width="1"/>
<text x="557" y="112" text-anchor="middle" font-family="monospace" font-size="11" fill="#00e5a0" font-weight="700">Docker  +  Drone CI</text>
<text x="557" y="128" text-anchor="middle" font-family="monospace" font-size="10" fill="#5dcaa5">build  •  test  •  push</text>
<text x="557" y="143" text-anchor="middle" font-family="monospace" font-size="9" fill="#1d9e75">containerized pipeline</text>

<rect x="245" y="195" width="180" height="56" rx="8" fill="#081a12" stroke="#1d9e75" stroke-width="1" stroke-dasharray="4 3"/>
<text x="335" y="219" text-anchor="middle" font-family="monospace" font-size="11" fill="#9fe1cb" font-weight="700">MLflow</text>
<text x="335" y="235" text-anchor="middle" font-family="monospace" font-size="10" fill="#5dcaa5">experiment tracking</text>
<text x="335" y="249" text-anchor="middle" font-family="monospace" font-size="9" fill="#1d9e75">metrics  •  artifacts  •  models</text>

<line x1="235" y1="146" x2="235" y2="190" stroke="#1d9e75" stroke-width="1" stroke-dasharray="3 3" marker-end="url(#arrow)" opacity="0.6"/>
<line x1="335" y1="195" x2="335" y2="148" stroke="#1d9e75" stroke-width="1" stroke-dasharray="3 3" opacity="0.4"/>
<line x1="435" y1="146" x2="435" y2="175" stroke="#1d9e75" stroke-width="1" stroke-dasharray="3 3" opacity="0.4"/>
<line x1="435" y1="175" x2="425" y2="175" stroke="#1d9e75" stroke-width="1" stroke-dasharray="3 3" opacity="0.4"/>
<line x1="425" y1="175" x2="425" y2="223" stroke="#1d9e75" stroke-width="1" stroke-dasharray="3 3" marker-end="url(#arrow)" opacity="0.5"/>

<rect x="30" y="300" width="180" height="40" rx="6" fill="#050e08" stroke="#085041" stroke-width="0.5"/>
<text x="120" y="316" text-anchor="middle" font-family="monospace" font-size="9" fill="#5dcaa5">spam</text>
<text x="120" y="330" text-anchor="middle" font-family="monospace" font-size="10" fill="#00e5a0" font-weight="700">{ "label": "SPAM", "score": 0.97 }</text>

<rect x="230" y="300" width="180" height="40" rx="6" fill="#050e08" stroke="#085041" stroke-width="0.5"/>
<text x="320" y="316" text-anchor="middle" font-family="monospace" font-size="9" fill="#5dcaa5">ham</text>
<text x="320" y="330" text-anchor="middle" font-family="monospace" font-size="10" fill="#9fe1cb" font-weight="700">{ "label": "HAM",  "score": 0.99 }</text>

<rect x="430" y="300" width="218" height="40" rx="6" fill="#050e08" stroke="#085041" stroke-width="0.5"/>
<text x="539" y="316" text-anchor="middle" font-family="monospace" font-size="9" fill="#5dcaa5">gitea  •  local registry</text>
<text x="539" y="330" text-anchor="middle" font-family="monospace" font-size="10" fill="#9fe1cb" font-weight="700">docker push → deploy</text>

<line x1="85" y1="146" x2="85" y2="298" stroke="#00e5a0" stroke-width="1" stroke-dasharray="3 3" opacity="0.3" marker-end="url(#arrow)"/>
<line x1="335" y1="251" x2="335" y2="298" stroke="#9fe1cb" stroke-width="1" stroke-dasharray="3 3" opacity="0.3" marker-end="url(#arrow)"/>
<line x1="557" y1="146" x2="557" y2="298" stroke="#5dcaa5" stroke-width="1" stroke-dasharray="3 3" opacity="0.3" marker-end="url(#arrow)"/>

<text x="340" y="380" text-anchor="middle" font-family="monospace" font-size="10" fill="#444441">Python  •  Scikit-learn  •  FastAPI  •  Docker  •  Drone CI  •  MLflow  •  Gitea</text>
</svg>
